# xmcd CD database file
#
# Track frame offsets:
#	150
#	16758
#	34758
#	52398
#	66963
#	85140
#	103308
#	108010
#	120920
#	133958
#	150223
#	161865
#	179373
#	195403
#
# Disc length: 2729 seconds
#
# Revision: 0
# Processed by: cddbd v1.5.1PL2 Copyright (c) Steve Scherf et al.
# Submitted via: CDex 1.70beta1
#
DISCID=b50aa70e
DTITLE=Kenneth Sivertsen - Flo
DYEAR=1990
DGENRE=Jazz
TTITLE0=Borghild
TTITLE1=Etterklangen
TTITLE2=Stillheten
TTITLE3=Fornekting
TTITLE4=Tauet
TTITLE5=Tankane og tida
TTITLE6=Utdrag frå Timeglaset og morgonstjerna, symfoni nr 2 - 1
TTITLE7=Møte
TTITLE8=Sommardag
TTITLE9=Strenger
TTITLE10=Ballongferd
TTITLE11=Bortanfor mellomste rommet
TTITLE12=Mot haust
TTITLE13=Utdrag frå Timeglaset og morgonstjerna Symfoni nr 2 - 2
EXTD=YEAR: 1990
EXTT0=
EXTT1=
EXTT2=
EXTT3=
EXTT4=
EXTT5=
EXTT6=
EXTT7=
EXTT8=
EXTT9=
EXTT10=
EXTT11=
EXTT12=
EXTT13=
PLAYORDER=
